<svg width="436" height="360" viewBox="0 0 436 360" fill="none" xmlns="http://www.w3.org/2000/svg">
<g clip-path="url(#clip0_80_51)">
<path d="M283.942 289.798C312.374 267.264 331.248 234.824 336.79 198.971C342.331 163.118 334.13 126.494 313.828 96.4272C293.527 66.3605 262.621 45.0679 227.294 36.8095C191.967 28.5511 154.825 33.9358 123.298 51.8864C91.7713 69.8369 68.1846 99.0295 57.2571 133.624C46.3295 168.218 48.867 205.663 64.3618 238.466C79.8567 271.27 107.166 297.014 140.827 310.547C174.487 324.08 212.016 324.404 245.906 311.455L245.884 311.449C246.29 312.48 246.751 313.479 247.302 314.48L306.928 419.289C309.831 424.397 314.644 428.142 320.309 429.7C325.973 431.259 332.025 430.504 337.132 427.6C342.239 424.697 345.984 419.884 347.543 414.22C349.101 408.555 348.346 402.504 345.443 397.396L285.817 292.587C285.266 291.605 284.635 290.687 283.942 289.798ZM312.008 209.223C307.77 224.647 300.535 239.086 290.717 251.714C280.899 264.342 268.69 274.913 254.786 282.822C240.883 290.732 225.557 295.826 209.685 297.813C193.813 299.8 177.705 298.641 162.281 294.403C146.857 290.164 132.419 282.93 119.791 273.111C107.162 263.293 96.5916 251.084 88.682 237.18C80.7723 223.277 75.6786 207.952 73.6917 192.08C71.7048 176.208 72.8635 160.1 77.1018 144.675C85.6613 113.525 106.245 87.0504 134.324 71.0761C162.403 55.1019 195.678 50.9363 226.829 59.4959C257.98 68.0555 284.454 88.639 300.428 116.718C316.402 144.798 320.568 178.073 312.008 209.223Z" fill="#9E9E9E" fill-opacity="0.32"/>
</g>
<defs>
<clipPath id="clip0_80_51">
<rect width="354.347" height="354.347" fill="white" transform="translate(93.8877) rotate(15.3645)"/>
</clipPath>
</defs>
</svg>
